<?xml version="1.0" standalone="no"?>
<!DOCTYPE svg PUBLIC "-//W3C//DTD SVG 20010904//EN"
 "http://www.w3.org/TR/2001/REC-SVG-20010904/DTD/svg10.dtd">
<svg version="1.0" xmlns="http://www.w3.org/2000/svg"
 width="393.000000pt" height="393.000000pt" viewBox="0 0 393.000000 393.000000"
 preserveAspectRatio="xMidYMid meet">
<metadata>
Created by potrace 1.14, written by Peter Selinger 2001-2017
</metadata>
<g transform="translate(0.000000,393.000000) scale(0.100000,-0.100000)"
fill="#000000" stroke="none">
<path d="M552 2762 c-15 -2 -36 -23 -59 -60 -31 -48 -37 -67 -41 -128 -3 -55
-1 -77 12 -96 17 -25 16 -26 -21 -42 -73 -33 -91 -46 -102 -76 -5 -17 -14 -30
-19 -30 -14 0 -120 -109 -154 -158 -71 -103 -108 -224 -109 -359 -1 -167 52
-307 162 -427 134 -146 278 -209 479 -209 151 0 238 25 353 103 60 40 163 146
182 187 9 18 17 33 18 33 1 0 2 -54 2 -120 0 -142 7 -154 82 -152 26 0 57 0
68 0 504 -5 554 -3 576 18 l21 21 22 -22 c21 -21 31 -23 120 -21 89 2 99 4
115 24 17 23 17 23 41 4 55 -43 184 -42 227 1 14 13 19 13 47 -4 135 -79 298
3 311 157 6 79 -33 156 -97 187 -18 9 -26 17 -17 17 9 0 33 11 53 25 43 29 46
30 46 10 0 -21 33 -35 82 -35 47 0 68 13 68 43 0 15 5 13 26 -12 l25 -30 110
0 c106 0 110 1 121 23 l10 24 51 -26 c53 -28 136 -34 175 -13 11 6 24 6 33 0
7 -5 54 -9 103 -9 105 0 143 17 174 81 22 43 20 84 -4 133 -10 22 -11 32 -3
43 7 7 11 36 10 64 0 30 5 60 15 74 12 18 14 48 12 143 -4 111 -6 122 -30 154
-62 82 -186 92 -251 20 -17 -19 -18 -19 -51 14 -30 30 -63 41 -100 35 -4 -1
-24 -1 -45 -1 -99 2 -126 -1 -144 -17 -18 -17 -19 -17 -28 0 -8 13 -23 17 -64
17 -67 0 -73 -9 -76 -109 -1 -39 -6 -74 -11 -77 -10 -6 -10 -6 -12 84 -1 50
-7 77 -17 88 -14 13 -72 15 -440 14 -447 -1 -443 -1 -529 1 -44 2 -64 -3 -95
-23 -22 -14 -46 -32 -53 -41 -11 -13 -17 -12 -45 15 -43 40 -72 50 -139 50
-60 -1 -87 -11 -126 -47 l-25 -23 -24 28 c-23 28 -69 46 -108 42 -11 -1 -36
-2 -55 -1 -81 2 -106 -2 -129 -19 -44 -33 -64 -68 -64 -114 l0 -44 -49 52
c-27 29 -65 63 -83 76 -19 12 -36 32 -37 42 -3 17 -19 30 -93 70 -15 9 -20 22
-21 58 0 32 -6 54 -19 68 -19 21 -19 22 28 65 52 48 59 77 28 116 -19 24 -22
24 -208 25 -103 0 -198 -1 -211 -4z"/>
</g>
</svg>
